<?xml version="1.0" standalone="no"?>
<!DOCTYPE svg PUBLIC "-//W3C//DTD SVG 20010904//EN"
 "http://www.w3.org/TR/2001/REC-SVG-20010904/DTD/svg10.dtd">
<svg version="1.0" xmlns="http://www.w3.org/2000/svg"
 width="1080.000000pt" height="1080.000000pt" viewBox="0 0 1080.000000 1080.000000"
 preserveAspectRatio="xMidYMid meet">
<metadata>
Created by potrace 1.14, written by Peter Selinger 2001-2017
</metadata>
<g transform="translate(0.000000,1080.000000) scale(0.100000,-0.100000)"
fill="#000000" stroke="none">
<path d="M5363 10773 c20 -14 37 -31 37 -37 1 -17 31 -48 76 -78 45 -31 58
-33 97 -15 21 9 27 19 27 43 0 17 3 34 7 38 4 4 8 23 10 42 2 30 -1 34 -21 34
-13 0 -40 -7 -59 -15 -45 -19 -110 -19 -162 0 -54 20 -55 19 -12 -12z"/>
<path d="M4845 10670 c3 -5 8 -10 11 -10 2 0 4 5 4 10 0 6 -5 10 -11 10 -5 0
-7 -4 -4 -10z"/>
<path d="M5015 10650 c11 -5 27 -9 35 -9 9 0 8 4 -5 9 -11 5 -27 9 -35 9 -9 0
-8 -4 5 -9z"/>
<path d="M6088 10583 c6 -2 18 -2 25 0 6 3 1 5 -13 5 -14 0 -19 -2 -12 -5z"/>
<path d="M6200 10581 c0 -11 49 -51 62 -51 14 0 -35 59 -49 59 -7 1 -13 -3
-13 -8z"/>
<path d="M4712 10564 c-21 -14 -22 -22 -22 -164 0 -109 3 -150 13 -153 6 -3 2
-6 -10 -6 -13 -1 -28 -10 -35 -21 -7 -11 -18 -20 -25 -20 -8 0 -13 -12 -13
-30 0 -43 40 -61 121 -54 41 3 66 10 74 21 7 9 23 18 36 20 36 5 67 23 72 44
6 24 0 29 -40 29 -18 0 -33 5 -33 10 0 12 496 12 655 0 l100 -7 -136 -1 c-157
-2 -165 -6 -156 -74 8 -62 22 -68 164 -68 68 0 123 -3 123 -7 0 -8 -341 -5
-348 2 -2 2 1 12 6 22 25 47 -39 94 -79 57 -11 -10 -18 -23 -16 -28 22 -58 24
-56 -57 -56 -41 0 -77 4 -81 9 -3 5 -18 6 -33 2 -15 -4 -72 -4 -127 0 -55 4
-136 7 -180 8 l-80 1 0 70 c0 38 -4 72 -8 76 -3 4 -15 -4 -25 -17 -16 -19 -31
-24 -86 -27 l-66 -4 0 -177 -1 -176 -42 -20 c-23 -11 -50 -18 -60 -16 -11 1
-26 -7 -34 -18 -8 -13 -25 -21 -42 -21 -20 0 -34 -8 -45 -25 -10 -15 -26 -25
-41 -25 -26 0 -55 -24 -55 -45 0 -8 -10 -17 -22 -20 -13 -4 -35 -18 -49 -32
-14 -13 -32 -23 -39 -21 -14 3 -32 -46 -23 -68 3 -10 0 -12 -10 -8 -8 3 -18 1
-22 -5 -9 -15 -25 -14 -25 2 0 16 -99 137 -112 137 -7 0 -8 -15 -5 -37 16 -99
20 -176 9 -169 -7 4 -8 -2 -2 -21 21 -70 33 -93 48 -93 14 -1 13 -4 -5 -19
-14 -11 -23 -30 -23 -46 0 -15 -11 -41 -26 -57 -14 -17 -23 -37 -19 -45 5 -14
0 -37 -30 -148 -7 -27 -18 -70 -24 -95 -6 -25 -19 -79 -30 -120 -10 -41 -24
-109 -31 -150 -20 -123 -48 -270 -65 -345 -10 -38 -21 -95 -26 -125 -13 -85
-45 -227 -68 -310 -11 -41 -23 -88 -26 -104 -2 -15 -7 -36 -10 -46 -3 -10 -8
-27 -10 -37 -2 -10 -11 -53 -20 -96 -9 -43 -16 -113 -16 -155 1 -187 -8 -375
-18 -385 -6 -6 -11 -17 -11 -24 0 -7 -20 -42 -45 -77 -25 -36 -45 -68 -45 -72
0 -4 -6 -15 -14 -23 -7 -9 -33 -52 -56 -96 -24 -44 -46 -82 -50 -85 -15 -10
-70 -126 -70 -146 0 -12 -6 -27 -14 -33 -8 -7 -17 -29 -21 -50 -3 -21 -13 -51
-21 -66 -23 -45 -1 -53 35 -14 38 42 33 24 -27 -91 -54 -103 -186 -301 -289
-433 -76 -97 -76 -98 -55 -113 12 -8 20 -20 17 -25 -4 -5 2 -9 13 -9 29 0 187
165 250 261 32 48 86 139 121 202 35 64 89 150 121 191 112 146 169 279 205
473 31 172 49 227 182 538 132 308 142 325 188 325 24 0 44 -9 65 -27 26 -25
32 -41 49 -138 10 -60 19 -96 20 -79 1 17 -6 73 -15 125 -14 77 -16 135 -10
324 3 127 11 253 18 280 13 57 13 85 3 170 -5 38 -3 83 5 120 11 54 19 66 75
120 88 85 192 206 196 229 6 33 82 29 145 -6 28 -15 54 -28 58 -28 4 0 4 20 0
45 -5 38 -4 45 10 45 28 0 29 -26 4 -97 -20 -59 -23 -87 -23 -214 0 -160 8
-186 52 -174 13 3 23 2 23 -2 0 -5 4 -35 10 -68 5 -33 18 -181 30 -330 29
-390 37 -452 66 -507 16 -31 27 -78 34 -138 13 -114 28 -165 58 -193 23 -21
32 -22 200 -22 172 0 179 -1 235 -27 70 -33 219 -139 239 -170 20 -32 28 -97
34 -307 6 -211 7 -209 -97 -163 -35 16 -98 41 -139 57 -44 17 -112 55 -165 93
-97 70 -204 124 -275 141 -25 6 -87 20 -139 31 -88 20 -194 54 -216 70 -11 7
-89 35 -197 70 -87 27 -139 24 -155 -10 -32 -67 -45 -607 -16 -642 7 -8 37
-27 67 -42 54 -27 54 -28 48 -64 -9 -49 -7 -286 2 -337 14 -72 57 -107 122
-99 21 3 51 7 67 8 15 2 30 4 35 6 4 1 36 1 72 -1 36 -1 99 -3 140 -4 41 -2
84 -5 95 -8 11 -3 23 -6 28 -6 4 -1 17 -11 29 -23 28 -28 74 -30 117 -5 33 20
34 20 47 2 8 -10 14 -23 14 -28 0 -16 28 -37 49 -37 17 0 21 -6 21 -30 0 -39
-38 -445 -49 -533 -7 -52 -6 -82 5 -123 8 -30 14 -63 14 -72 0 -19 31 -50 70
-69 22 -11 18 -12 -35 -8 -124 11 -135 15 -135 41 0 34 -17 30 -25 -6 -9 -41
-3 -47 60 -55 103 -12 77 -41 -45 -49 -47 -3 -138 -8 -203 -12 -85 -5 -128 -4
-156 6 -51 17 -147 6 -160 -19 -6 -10 -6 -45 -1 -87 9 -74 14 -125 30 -304 6
-63 14 -146 20 -185 5 -38 12 -104 15 -145 14 -174 37 -316 57 -350 11 -19 27
-60 34 -90 8 -30 19 -67 25 -82 13 -31 45 -43 58 -21 5 11 24 15 59 15 29 0
49 4 46 9 -3 5 -14 9 -26 9 -14 0 -18 5 -15 15 8 20 -8 28 -23 10 -16 -19 -30
-19 -30 -1 0 8 -6 17 -12 19 -10 4 -9 8 2 16 8 5 11 13 8 17 -4 3 0 13 8 21 8
8 12 23 9 33 -4 14 -1 17 22 13 27 -3 27 -3 6 8 -58 30 -9 39 215 39 148 0
178 -3 193 -16 18 -16 49 -13 49 5 0 5 -8 12 -17 14 -10 3 16 5 57 6 74 1 76
1 78 -25 1 -14 -2 -23 -7 -19 -5 3 -12 1 -16 -5 -3 -5 -2 -10 2 -10 12 0 32
-105 30 -155 0 -23 3 -47 8 -55 11 -18 13 -90 3 -90 -4 0 -5 -14 -1 -32 4 -22
3 -29 -5 -24 -12 7 -10 -7 8 -49 5 -11 11 -51 14 -90 6 -84 12 -138 25 -225 6
-36 13 -130 16 -210 5 -128 10 -195 29 -345 20 -159 48 -496 61 -724 3 -63 13
-143 21 -177 8 -35 13 -67 12 -71 -1 -8 0 -17 32 -183 10 -52 17 -96 16 -98
-11 -10 -80 -3 -86 9 -24 41 -37 51 -58 45 -26 -9 -29 -49 -8 -100 12 -30 12
-34 -5 -44 -13 -9 -19 -26 -21 -69 l-3 -58 -42 -9 c-35 -7 -47 -5 -70 10 -15
11 -32 19 -38 20 -5 0 -20 4 -33 8 -14 5 -29 3 -37 -4 -8 -7 -25 -10 -36 -7
-16 4 -28 -1 -41 -19 -11 -13 -27 -23 -36 -22 -12 2 -18 -9 -24 -45 -8 -42 -5
-57 17 -105 22 -49 26 -68 24 -144 -2 -59 2 -92 10 -102 21 -25 31 -19 31 20
0 31 2 35 15 24 18 -15 20 -47 4 -52 -6 -2 -13 -28 -16 -57 -4 -46 -2 -53 15
-58 15 -3 24 -22 37 -71 18 -75 47 -128 73 -136 9 -3 33 -8 53 -11 32 -6 37
-4 42 16 3 12 2 30 -4 40 -16 30 -10 34 15 9 25 -22 25 -22 23 -1 -1 11 -6 21
-11 21 -5 0 -6 3 -3 7 4 3 1 16 -7 28 -16 24 -24 62 -30 138 -3 40 0 53 21 77
14 17 31 30 38 30 15 0 47 39 40 50 -2 4 42 14 98 24 56 9 115 19 131 23 28 5
28 4 22 -29 -3 -18 -11 -80 -16 -138 -9 -95 -12 -106 -37 -125 -28 -23 -25
-45 7 -45 10 0 20 -6 22 -12 3 -9 9 -8 22 5 9 9 14 21 11 27 -3 5 2 10 12 10
15 0 16 2 3 10 -13 9 -13 11 0 20 8 5 11 10 6 10 -5 0 -3 7 4 15 7 9 10 18 7
22 -4 3 1 12 11 19 16 12 16 13 -3 14 -11 0 -27 5 -35 10 -11 7 -6 8 16 4 17
-3 41 -1 54 6 12 6 24 9 27 6 3 -3 -5 -10 -18 -15 l-24 -10 24 0 c18 -1 21 -4
12 -14 -6 -8 -8 -17 -4 -20 3 -4 -2 -7 -13 -7 -14 0 -16 -2 -6 -9 11 -7 11 -9
0 -13 -7 -3 -15 -21 -16 -39 -1 -18 -8 -37 -15 -41 -7 -5 -2 -8 15 -8 20 0 26
4 22 15 -4 8 -1 15 5 15 6 0 11 -3 11 -7 0 -5 13 -17 29 -28 16 -10 27 -23 25
-27 -7 -11 4 -10 27 2 16 9 19 7 19 -10 0 -11 5 -20 11 -20 5 0 8 -4 5 -9 -4
-5 -1 -22 5 -38 l11 -28 15 35 c8 19 17 64 18 100 2 36 4 79 5 95 2 39 7 24
15 -48 6 -50 9 -57 25 -52 11 4 17 1 17 -7 -1 -7 2 -37 7 -66 10 -66 23 -57
36 23 11 65 14 72 32 58 22 -17 61 -22 101 -14 21 5 37 5 37 0 0 -5 -15 -9
-32 -9 -25 0 -29 -3 -18 -10 14 -9 105 -4 122 6 4 3 8 0 8 -6 0 -7 8 -9 19 -5
23 7 37 -10 46 -58 7 -34 25 -62 25 -38 0 22 1 26 14 46 7 11 16 33 20 49 4
16 13 38 20 48 11 16 15 11 31 -45 10 -34 26 -70 35 -81 17 -17 18 -16 34 26
23 60 24 227 7 1275 -8 473 -10 869 -6 880 4 10 7 31 6 46 -2 23 1 28 15 25
17 -3 38 -61 51 -143 3 -22 10 -43 15 -46 5 -3 11 -34 13 -69 3 -35 13 -81 25
-104 23 -48 85 -116 106 -116 8 0 14 -4 14 -10 0 -5 25 -21 55 -35 62 -28 69
-30 59 -14 -5 8 -1 8 13 0 14 -7 32 -7 59 0 28 8 39 8 42 0 5 -16 19 -13 19 4
0 9 -10 15 -24 15 -14 0 -21 4 -18 10 3 5 18 10 33 10 15 0 33 4 41 9 16 10 5
34 -12 25 -7 -4 2 7 20 23 17 17 38 33 47 36 9 4 20 15 23 24 9 22 43 52 61
53 7 0 15 6 18 14 3 8 19 20 35 26 16 7 29 18 29 25 0 8 6 16 13 19 9 3 7 9
-6 19 -17 14 -14 16 32 32 60 20 55 -15 41 310 -8 179 -13 223 -35 300 -41
142 -52 182 -131 493 -72 284 -74 297 -74 413 0 108 2 123 22 149 30 41 31
144 1 186 -15 22 -22 50 -25 111 -3 45 -3 84 -1 87 9 9 31 -19 26 -32 -3 -7 0
-18 6 -26 6 -7 9 -20 6 -28 -4 -9 1 -23 10 -31 12 -13 13 -21 5 -36 -9 -18 -6
-20 34 -26 73 -11 87 -2 85 58 -1 29 -6 57 -11 64 -5 7 -7 17 -3 22 9 16 -13
51 -33 51 -15 0 -15 2 -2 10 8 5 27 10 41 10 62 0 109 83 109 192 0 60 -33
142 -63 155 -12 5 -53 8 -92 7 -64 -3 -72 -1 -97 23 -23 22 -28 35 -28 75 0
26 -4 48 -10 48 -15 0 -13 97 3 103 9 3 7 10 -6 24 -17 20 -17 21 8 37 31 20
33 58 5 93 -11 14 -20 32 -20 39 0 8 -10 15 -22 15 -13 1 -16 3 -8 5 12 4 14
20 12 88 -4 88 7 126 34 126 9 0 14 6 11 13 -2 6 8 26 23 44 37 42 47 126 24
203 -26 90 -28 108 -9 136 15 23 18 24 28 10 17 -23 171 -33 206 -14 27 14 33
30 52 137 10 59 10 88 0 145 -6 39 -16 75 -22 81 -12 12 -149 20 -149 8 0 -5
-24 -6 -52 -3 l-53 5 -5 175 c-3 96 -9 183 -14 193 -31 64 -254 92 -272 34
l-7 -22 -8 22 c-7 19 -13 20 -66 16 -70 -5 -162 -47 -181 -83 -11 -20 -12 -89
-6 -345 3 -176 6 -331 5 -344 0 -14 5 -34 13 -45 19 -31 29 -83 17 -91 -16 -9
-13 -154 3 -209 8 -27 22 -56 31 -66 17 -19 23 -128 10 -170 -5 -17 -2 -20 25
-20 28 0 31 -3 28 -27 -3 -24 -8 -28 -39 -31 -25 -2 -40 3 -53 17 -18 20 -18
21 4 29 l24 9 -22 5 c-26 7 -30 43 -6 56 11 6 14 21 12 53 l-3 44 -82 -4 -83
-3 -1 58 c-1 33 -1 63 0 67 5 28 -96 177 -119 177 -6 0 -10 7 -10 15 0 8 -9
19 -19 25 -28 14 -72 13 -68 -2 1 -7 -5 -13 -13 -13 -8 0 -14 6 -13 13 2 6 -6
12 -17 12 -23 0 -22 -4 -21 115 1 100 2 95 -64 320 -37 126 -48 181 -52 259
-6 97 -6 99 -42 131 l-36 34 23 21 c15 15 22 32 22 60 0 21 -4 41 -9 44 -4 3
-1 29 7 58 21 73 22 259 2 283 -12 14 -17 73 -25 286 -7 171 -14 272 -21 279
-11 11 -177 75 -359 139 -49 17 -119 35 -155 40 -90 13 -298 98 -323 132 -23
31 -33 129 -22 214 6 48 11 59 36 74 17 10 58 22 92 25 75 9 116 29 114 56 -1
13 -8 20 -21 20 -19 0 -19 -1 -2 -13 16 -11 16 -15 3 -25 -12 -10 -16 -10 -20
3 -4 9 -13 12 -23 8 -11 -4 -15 -2 -11 4 5 7 0 9 -13 6 -21 -5 -28 11 -10 22
6 4 8 10 5 14 -8 14 52 21 115 14 51 -5 60 -9 60 -26 0 -16 2 -17 15 -7 12 10
19 10 28 1 9 -9 9 -14 -3 -21 -8 -5 -10 -10 -5 -11 6 0 1 -4 -10 -9 -11 -4
-30 -6 -41 -3 -12 2 -25 0 -28 -5 -9 -15 21 -23 47 -13 15 6 29 4 41 -5 11 -7
22 -11 27 -9 4 3 48 -1 98 -9 66 -11 106 -12 148 -6 32 6 82 10 111 10 34 0
52 4 53 13 7 121 46 142 126 67 39 -37 40 -42 57 -313 12 -193 16 -220 33
-240 11 -12 33 -44 49 -72 65 -113 94 -104 94 29 0 51 4 96 10 102 28 28 36
100 28 254 -19 396 -36 946 -29 953 4 4 20 3 34 -2 15 -6 33 -8 41 -5 17 6
115 -24 137 -42 8 -8 27 -14 42 -14 14 0 29 -5 33 -11 3 -6 16 -8 28 -5 31 8
147 -35 160 -59 6 -11 26 -37 44 -59 17 -22 32 -46 32 -54 0 -14 46 -78 82
-114 9 -9 26 -34 37 -55 10 -21 45 -63 76 -93 31 -30 63 -70 71 -89 18 -44 18
-131 -1 -167 -16 -31 -18 -89 -5 -169 9 -59 10 -58 17 20 6 76 17 91 50 70 13
-9 28 -13 33 -10 6 3 10 1 10 -4 0 -24 16 -9 32 30 14 32 20 39 33 31 27 -15
97 -152 221 -432 42 -96 96 -213 119 -260 23 -47 50 -107 60 -133 10 -26 21
-50 25 -52 22 -13 21 231 0 295 -5 14 -11 68 -14 120 -6 98 -18 156 -55 250
-53 133 -77 236 -112 485 -35 254 -74 420 -104 445 -25 21 -28 67 -7 95 33 41
36 89 11 135 -13 22 -31 42 -41 46 -29 9 -41 50 -49 164 -8 127 -21 187 -43
203 -15 11 -21 27 -25 58 -1 4 -12 10 -26 13 -15 4 -25 14 -25 24 0 19 -109
121 -156 145 -17 9 -36 23 -43 31 -8 9 -22 16 -32 16 -11 0 -58 22 -107 49
-48 28 -99 53 -115 57 -15 3 -34 15 -41 26 -10 14 -21 18 -34 14 -14 -5 -27 1
-44 18 -20 22 -36 26 -132 36 -60 6 -114 14 -120 17 -6 4 -59 12 -118 17
l-108 11 24 45 c34 65 50 173 41 288 -11 141 -4 137 -240 146 -485 20 -553 26
-878 82 -225 39 -244 40 -275 18z m325 -230 c-3 -3 -12 -4 -19 -1 -8 3 -5 6 6
6 11 1 17 -2 13 -5z m83 -4 c0 -5 -9 -10 -19 -10 -11 0 -23 5 -26 10 -4 6 5
10 19 10 14 0 26 -4 26 -10z m68 -7 c-10 -2 -26 -2 -35 0 -10 3 -2 5 17 5 19
0 27 -2 18 -5z m140 0 c-16 -2 -40 -2 -55 0 -16 2 -3 4 27 4 30 0 43 -2 28 -4z
m342 -169 l0 -56 -31 6 c-17 3 -80 6 -140 6 l-109 0 0 50 0 50 140 0 140 0 0
-56z m50 1 c0 -25 -4 -45 -10 -45 -5 0 -10 20 -10 45 0 25 5 45 10 45 6 0 10
-20 10 -45z m40 -6 c0 -31 -4 -48 -10 -44 -17 11 -12 95 7 95 2 0 3 -23 3 -51z
m43 -42 c-11 -18 -18 5 -14 45 l5 43 7 -40 c4 -22 5 -43 2 -48z m-1343 33 c0
-16 -4 -30 -10 -30 -5 0 -10 14 -10 30 0 17 5 30 10 30 6 0 10 -13 10 -30z
m774 14 c21 -8 21 -50 0 -58 -27 -11 -54 3 -54 28 0 35 17 44 54 30z m211 -93
l160 -6 3 -34 3 -34 -298 7 c-164 3 -352 9 -417 13 -104 5 -117 8 -101 19 10
8 16 14 12 14 -5 0 -2 7 5 15 11 12 53 14 243 13 127 0 302 -3 390 -7z m441
-96 c-11 -8 -32 -15 -47 -15 -15 0 -34 -3 -43 -6 -12 -4 -16 0 -16 15 0 19 6
21 63 21 57 -1 60 -2 43 -15z m11 -41 c-3 -3 -12 -4 -19 -1 -8 3 -5 6 6 6 11
1 17 -2 13 -5z m313 -4 c0 -13 -30 -13 -50 0 -11 7 -7 10 18 10 17 0 32 -4 32
-10z m83 -7 c12 -7 8 -20 -8 -27 -8 -3 -27 6 -42 20 l-28 25 35 -7 c19 -3 38
-8 43 -11z m112 -4 c10 -15 -1 -23 -20 -15 -9 3 -13 10 -10 16 8 13 22 13 30
-1z m99 -18 c9 -15 -53 -19 -65 -4 -9 10 -4 13 24 13 20 0 38 -4 41 -9z m-34
-73 c0 -13 -19 -9 -45 8 -14 9 -22 20 -19 25 6 10 64 -20 64 -33z m96 -3 c18
-15 18 -15 -10 -13 -16 2 -31 9 -34 16 -5 17 20 15 44 -3z m-46 -45 c0 -5 -4
-10 -9 -10 -6 0 -13 5 -16 10 -3 6 1 10 9 10 9 0 16 -4 16 -10z m50 -5 c7 -8
9 -22 6 -31 -6 -16 -8 -16 -25 0 -20 18 -24 46 -6 46 7 0 18 -7 25 -15z m-420
-29 c0 -21 -4 -24 -35 -23 -36 1 -51 17 -16 17 10 0 21 7 25 15 9 23 26 18 26
-9z m70 -1 c17 -9 30 -17 30 -18 0 -1 -18 -1 -40 1 -38 4 -48 11 -33 25 9 9
10 9 43 -8z m490 -22 c0 -13 -3 -13 -15 -3 -8 7 -15 19 -15 27 0 13 3 13 15 3
8 -7 15 -19 15 -27z m-82 -9 c-10 -10 -28 6 -28 24 0 15 1 15 17 -1 9 -9 14
-19 11 -23z m-1598 -33 c25 -51 71 -82 126 -89 63 -7 76 -33 34 -68 -35 -30
-60 -73 -60 -106 -1 -20 -2 -21 -11 -5 -20 33 -79 15 -79 -25 0 -39 69 -44 83
-6 3 8 9 3 15 -12 7 -19 7 -29 -4 -40 -12 -13 -18 -12 -43 3 -50 29 -113 33
-164 8 -64 -31 -80 -21 -72 43 8 63 -2 91 -51 139 -46 45 -40 68 20 74 65 7
109 37 131 90 20 46 49 44 75 -6z m1748 16 c4 -18 -14 -22 -37 -8 -7 5 -10 14
-6 20 10 17 39 9 43 -12z m50 -14 c6 -19 -25 -16 -32 3 -4 11 -1 14 11 12 9
-2 18 -9 21 -15z m-2484 -8 c3 -8 1 -15 -4 -15 -6 0 -10 7 -10 15 0 8 2 15 4
15 2 0 6 -7 10 -15z m1841 -15 l28 -29 -39 6 c-73 11 -86 39 -23 52 3 0 18
-12 34 -29z m87 6 c13 -19 9 -26 -14 -26 -20 0 -58 26 -58 40 0 11 64 -2 72
-14z m100 -16 c21 -22 25 -30 13 -30 -30 0 -85 29 -85 44 0 26 39 18 72 -14z
m-2137 10 c8 -13 -5 -13 -25 0 -13 8 -13 10 2 10 9 0 20 -4 23 -10z m2699 1
c3 -5 -1 -11 -9 -15 -9 -3 -15 0 -15 9 0 16 16 20 24 6z m-869 -21 c-3 -5 -14
-10 -23 -10 -15 0 -15 2 -2 10 20 13 33 13 25 0z m-1905 -30 c0 -5 -4 -10 -9
-10 -6 0 -13 5 -16 10 -3 6 1 10 9 10 9 0 16 -4 16 -10z m2295 0 c3 -5 2 -10
-4 -10 -5 0 -13 5 -16 10 -3 6 -2 10 4 10 5 0 13 -4 16 -10z m403 -13 c5 -24
-15 -21 -28 4 -10 18 -9 20 7 17 10 -2 19 -11 21 -21z m132 14 c0 -17 -18 -21
-24 -6 -3 9 0 15 9 15 8 0 15 -4 15 -9z m-932 -17 c-15 -16 -18 -16 -33 0 -15
15 -14 16 16 16 31 0 32 -1 17 -16z m82 -20 c0 -9 -6 -9 -24 -1 -13 6 -22 17
-19 24 6 15 43 -5 43 -23z m171 19 c43 -26 44 -41 2 -34 -25 4 -38 13 -44 29
-10 27 2 29 42 5z m-77 -9 c9 -4 21 -15 27 -25 11 -20 7 -20 -71 15 l-35 15
32 1 c17 0 39 -3 47 -6z m179 -21 c-7 -2 -19 -2 -25 0 -7 3 -2 5 12 5 14 0 19
-2 13 -5z m89 -5 c-9 -9 -15 -9 -24 0 -9 9 -7 12 12 12 19 0 21 -3 12 -12z
m-2148 -40 c3 -13 2 -26 -3 -31 -5 -5 -11 5 -13 22 -5 36 7 42 16 9z m354 15
c26 -4 42 -11 42 -19 0 -11 -26 -14 -124 -14 -162 0 -161 1 -153 -130 4 -52
13 -189 22 -305 34 -460 41 -589 30 -560 -5 12 -34 269 -41 365 -3 36 -9 110
-14 165 -6 55 -17 187 -25 294 -9 107 -19 199 -21 203 -6 10 213 10 284 1z
m1522 3 c0 -3 -4 -8 -10 -11 -5 -3 -10 -1 -10 4 0 6 5 11 10 11 6 0 10 -2 10
-4z m110 -6 c0 -13 -11 -13 -30 0 -12 8 -11 10 8 10 12 0 22 -4 22 -10z m70
-5 c11 -13 10 -14 -4 -9 -9 3 -16 10 -16 15 0 13 6 11 20 -6z m104 6 c3 -5 0
-11 -8 -14 -8 -3 -17 1 -20 9 -6 15 19 20 28 5z m-360 -48 c16 -10 17 -13 5
-13 -9 0 -22 7 -29 15 -7 8 -19 15 -26 15 -8 0 -14 5 -14 10 0 7 8 6 21 -2 12
-7 31 -19 43 -25z m37 19 c-7 -2 -18 1 -23 6 -8 8 -4 9 13 5 13 -4 18 -8 10
-11z m311 -14 c-11 -11 -62 -21 -62 -12 0 6 41 23 60 23 11 1 11 -2 2 -11z
m-448 -14 c6 -16 8 -426 2 -509 -1 -22 -3 -69 -4 -104 -1 -42 -5 -62 -12 -55
-8 8 -18 169 -34 557 l-6 127 24 0 c13 0 27 -7 30 -16z m152 -11 c-10 -10 -19
5 -10 18 6 11 8 11 12 0 2 -7 1 -15 -2 -18z m202 -4 c5 -12 3 -12 -11 0 -9 7
-24 11 -32 7 -9 -3 -15 0 -15 8 0 19 52 6 58 -15z m-89 5 c2 -2 -12 -4 -33 -4
-22 0 -35 4 -31 10 5 9 52 4 64 -6z m271 8 c0 -10 -57 -9 -67 1 -3 4 10 7 30
7 21 0 37 -4 37 -8z m-2670 -10 c0 -13 -12 -22 -22 -16 -10 6 -1 24 13 24 5 0
9 -4 9 -8z m360 -22 c-27 -17 -41 -11 -22 9 10 11 21 14 27 9 6 -6 5 -12 -5
-18z m2418 -8 c6 -18 -15 -14 -22 4 -4 10 -1 14 6 12 6 -2 14 -10 16 -16z
m-2474 -13 c-9 -15 -34 -10 -28 5 3 8 12 12 20 9 8 -3 11 -9 8 -14z m180 -6
c-5 -26 6 -117 21 -173 10 -39 17 -238 7 -215 -5 11 -10 58 -11 105 -4 140
-11 104 -11 -58 0 -135 -6 -173 -23 -144 -8 12 -20 490 -13 501 4 6 14 11 21
11 10 0 13 -8 9 -27z m1910 1 c7 -19 2 -18 -19 6 -16 17 -16 20 -3 15 9 -4 19
-13 22 -21z m438 9 c20 -18 24 -33 8 -33 -5 0 -10 5 -10 11 0 7 -8 18 -17 25
-10 7 -14 14 -9 14 5 0 18 -7 28 -17z m-2847 -13 c-3 -5 -11 -10 -16 -10 -6 0
-7 5 -4 10 3 6 11 10 16 10 6 0 7 -4 4 -10z m2775 -10 c12 -8 11 -10 -7 -10
-12 0 -25 5 -28 10 -8 13 15 13 35 0z m-240 -24 c0 -2 -9 -2 -20 1 -11 3 -20
9 -20 15 0 5 9 4 20 -2 11 -6 20 -12 20 -14z m-705 -16 c0 -20 -5 -25 -25 -25
-20 0 -26 6 -28 28 -3 26 -1 28 25 25 22 -2 28 -8 28 -28z m542 24 c-3 -3 -12
-4 -19 -1 -8 3 -5 6 6 6 11 1 17 -2 13 -5z m80 0 c-3 -3 -12 -4 -19 -1 -8 3
-5 6 6 6 11 1 17 -2 13 -5z m758 -54 c3 -5 1 -10 -4 -10 -6 0 -11 5 -11 10 0
6 2 10 4 10 3 0 8 -4 11 -10z m-1180 -141 c12 -19 -5 -23 -22 -6 -16 16 -16
17 -1 17 9 0 20 -5 23 -11z m285 -30 c10 -18 9 -20 -12 -17 -12 2 -24 11 -26
21 -5 24 25 22 38 -4z m445 -27 c-3 -3 -11 0 -18 7 -9 10 -8 11 6 5 10 -3 15
-9 12 -12z m-428 -38 c-3 -3 -12 -4 -19 -1 -8 3 -5 6 6 6 11 1 17 -2 13 -5z
m83 -14 c0 -5 -5 -12 -11 -16 -14 -8 -33 11 -25 25 7 11 36 4 36 -9z m-947
-39 c21 -14 45 -31 55 -36 42 -24 154 -104 230 -163 126 -98 113 -117 -73
-110 -81 3 -105 1 -105 -9 0 -7 -6 -13 -12 -13 -9 0 -8 -3 2 -10 8 -5 25 -7
37 -3 14 3 23 1 23 -6 0 -6 -4 -11 -10 -11 -16 0 -12 -47 6 -64 18 -19 28 -20
57 -5 21 12 22 11 4 -8 -10 -12 -23 -37 -28 -58 -8 -28 -14 -34 -22 -26 -15
15 -50 14 -65 -1 -17 -17 -15 -45 4 -56 10 -6 -4 -7 -40 -4 -44 3 -63 0 -91
-17 -44 -26 -80 -14 -69 22 9 31 14 34 25 14 11 -20 49 -23 67 -5 35 35 -11
82 -52 54 -23 -14 -24 -13 -35 25 -6 21 -28 55 -48 74 -46 44 -38 66 26 72 23
2 56 13 74 23 30 19 31 19 44 0 19 -27 68 -26 87 1 14 20 13 23 -9 40 -29 24
-42 24 -83 -1 -37 -22 -94 -26 -110 -7 -9 11 -17 166 -14 269 2 40 5 47 25 51
33 6 57 -2 100 -32z m1031 10 c3 -5 -1 -14 -9 -21 -8 -7 -15 -10 -15 -7 0 3
-3 12 -6 21 -7 17 20 23 30 7z m-1500 -57 c9 -69 8 -150 -3 -138 -21 21 -41
106 -35 144 9 55 30 51 38 -6z m-140 -94 c5 -89 4 -109 -10 -129 -16 -22 -22
-23 -86 -19 -38 3 -74 10 -79 15 -5 5 -12 26 -16 46 -8 53 43 159 89 183 48
25 82 33 89 20 4 -6 9 -58 13 -116z m350 114 c18 -47 -5 -174 -32 -174 -5 0
-5 30 -1 67 4 37 5 73 2 80 -6 16 3 43 16 43 5 0 12 -7 15 -16z m1471 -4 c8
-13 -5 -13 -25 0 -13 8 -13 10 2 10 9 0 20 -4 23 -10z m-1415 -59 c0 -20 2
-21 15 -11 18 15 20 -1 3 -18 -25 -25 -38 -13 -38 36 0 34 3 43 10 32 5 -8 10
-26 10 -39z m762 -37 c22 -28 23 -37 23 -189 l0 -160 -39 -3 c-87 -7 -82 -18
-90 213 -4 113 -4 210 -1 215 7 12 76 -37 107 -76z m723 56 c3 -5 1 -10 -4
-10 -6 0 -11 5 -11 10 0 6 2 10 4 10 3 0 8 -4 11 -10z m-160 -20 c3 -5 -3 -10
-14 -10 -12 0 -21 5 -21 10 0 6 6 10 14 10 8 0 18 -4 21 -10z m-1675 -30 c0
-10 7 -21 16 -24 10 -4 13 -13 9 -26 -4 -14 1 -28 17 -45 25 -26 48 -33 48
-13 0 9 3 9 12 0 7 -7 40 -12 80 -12 52 0 68 -3 68 -14 0 -19 57 -31 75 -16 8
7 12 16 9 21 -3 5 6 9 20 9 28 0 35 -17 11 -26 -12 -5 -13 -10 -4 -20 6 -8 16
-11 21 -8 14 9 89 -17 82 -27 -3 -5 -21 -9 -41 -9 -27 0 -45 -8 -70 -32 -93
-88 -93 -88 -93 -133 0 -24 4 -55 10 -70 15 -41 70 -85 105 -85 43 0 57 -12
50 -43 -7 -25 -7 -25 -128 -29 -67 -2 -125 1 -129 6 -3 5 -4 24 -1 41 4 26 1
36 -18 49 l-23 16 32 0 c52 0 82 37 82 100 0 61 -31 100 -79 100 -16 0 -33 5
-36 10 -3 6 -19 8 -35 5 -23 -4 -28 -2 -24 10 4 9 -4 19 -23 27 -38 17 -39 18
-23 28 10 6 -1 8 -29 5 -25 -2 -49 -1 -55 3 -6 3 -28 7 -49 7 -27 1 -36 -3
-33 -12 6 -15 -21 -17 -42 -4 -11 6 -11 10 0 18 16 13 128 21 146 10 7 -5 12
-4 12 2 0 6 -5 11 -12 11 -6 0 -4 7 5 18 13 14 17 38 17 101 0 52 4 80 10 76
6 -3 10 -14 10 -25z m1910 -20 c10 -19 10 -20 -9 -8 -22 13 -28 28 -11 28 5 0
14 -9 20 -20z m-1685 -60 c-3 -5 -15 -10 -25 -10 -10 0 -22 5 -25 10 -4 6 7
10 25 10 18 0 29 -4 25 -10z m125 -10 c0 -5 -4 -10 -10 -10 -5 0 -10 5 -10 10
0 6 5 10 10 10 6 0 10 -4 10 -10z m880 -71 c0 -11 -4 -17 -10 -14 -5 3 -10 13
-10 21 0 8 5 14 10 14 6 0 10 -9 10 -21z m-425 -98 c0 -13 -6 -26 -12 -28 -8
-3 -13 4 -13 16 0 11 -8 25 -17 31 -15 9 -13 10 12 8 24 -2 30 -8 30 -27z
m-815 -17 c0 -11 -5 -14 -16 -10 -9 3 -29 6 -45 6 -18 0 -28 4 -24 10 3 6 24
10 46 10 29 0 39 -4 39 -16z m910 -30 c0 -2 -11 -4 -25 -4 -14 0 -25 4 -25 9
0 4 11 6 25 3 14 -2 25 -6 25 -8z m-560 -14 c-8 -5 -17 -7 -19 -4 -3 3 1 9 9
14 8 5 17 7 19 4 3 -3 -1 -9 -9 -14z m-385 -99 c8 -13 -33 -40 -72 -47 -52
-10 -83 2 -83 31 0 24 2 25 74 25 41 0 77 -4 81 -9z m794 -57 c1 -18 -28 -25
-52 -12 l-21 11 22 8 c12 5 25 16 29 26 6 15 7 15 14 -3 4 -10 8 -24 8 -30z
m-1025 -99 c3 -83 2 -103 -3 -65 -13 84 -19 202 -11 193 5 -4 11 -62 14 -128z
m684 70 c16 -17 16 -17 -1 -11 -10 3 -24 6 -31 6 -7 0 -21 7 -32 15 -18 14
-17 14 14 11 19 -2 41 -12 50 -21z m-306 -87 c-15 -15 -26 -4 -18 18 5 13 9
15 18 6 9 -9 9 -15 0 -24z m765 -14 c-3 -3 -12 -4 -19 -1 -8 3 -5 6 6 6 11 1
17 -2 13 -5z m-726 -101 c-3 -38 -7 -57 -9 -43 -2 13 -13 32 -24 41 -19 17
-19 17 0 23 11 4 22 16 25 26 9 37 12 21 8 -47z m-106 37 c-28 -12 -37 -12
-30 0 3 6 16 10 28 9 21 0 21 -1 2 -9z m770 -1040 c-3 -5 -11 -10 -16 -10 -6
0 -7 5 -4 10 3 6 11 10 16 10 6 0 7 -4 4 -10z m63 -8 c6 -18 -15 -14 -22 4 -4
10 -1 14 6 12 6 -2 14 -10 16 -16z m-6 -64 c-6 -6 -15 -8 -19 -4 -4 4 -1 11 7
16 19 12 27 3 12 -12z m-42 -8 c0 -5 -4 -10 -10 -10 -5 0 -10 5 -10 10 0 6 5
10 10 10 6 0 10 -4 10 -10z m209 -723 c8 -11 6 -13 -11 -13 -11 1 -23 -5 -25
-11 -3 -8 4 -13 16 -13 12 0 21 -4 21 -10 0 -15 -26 -12 -40 5 -14 17 -4 55
14 55 8 0 19 -6 25 -13z m-509 -7 c0 -5 -4 -10 -10 -10 -5 0 -10 5 -10 10 0 6
5 10 10 10 6 0 10 -4 10 -10z m60 -21 c0 -10 -4 -19 -10 -19 -5 0 -10 12 -10
26 0 14 4 23 10 19 6 -3 10 -15 10 -26z m1400 -43 c0 -2 -3 -11 -6 -20 -9 -23
-34 -20 -34 4 0 13 7 20 20 20 11 0 20 -2 20 -4z m-25 -96 c3 -5 1 -10 -4 -10
-6 0 -11 5 -11 10 0 6 2 10 4 10 3 0 8 -4 11 -10z m-1567 -277 c-27 -2 -69 -2
-95 0 -27 2 -5 3 47 3 52 0 74 -1 48 -3z m89 1 c-3 -3 -12 -4 -19 -1 -8 3 -5
6 6 6 11 1 17 -2 13 -5z m135 -144 c22 -30 15 -60 -13 -60 -26 0 -62 59 -47
77 16 19 37 13 60 -17z m1640 -12 c-6 -6 -21 -7 -33 -3 -23 8 -23 8 -4 15 26
9 50 1 37 -12z m68 14 c0 -13 -12 -22 -22 -16 -10 6 -1 24 13 24 5 0 9 -4 9
-8z m-303 -60 c8 -5 8 -15 -3 -40 -11 -26 -19 -33 -36 -30 -23 3 -35 35 -24
64 6 15 43 19 63 6z m-59 -109 c-6 -33 -83 -47 -95 -17 -8 21 14 34 60 34 31
0 37 -3 35 -17z m-1661 -19 c-3 -3 -12 -4 -19 -1 -8 3 -5 6 6 6 11 1 17 -2 13
-5z m63 -54 c0 -5 16 -10 35 -10 23 0 35 -5 35 -14 0 -16 37 -28 66 -20 13 3
28 -4 43 -20 28 -30 22 -32 -43 -10 -32 11 -61 14 -91 9 -42 -6 -73 -25 -42
-25 16 0 27 -21 27 -48 0 -24 -60 -62 -98 -62 -26 0 -33 5 -38 28 -3 15 -7 33
-9 39 -7 20 34 51 58 46 22 -5 22 -4 -1 14 -31 25 -27 65 8 74 37 10 50 10 50
-1z m951 -114 c11 -38 5 -46 -36 -46 -44 0 -48 9 -23 48 25 39 49 38 59 -2z
m-771 -61 c13 -14 20 -28 17 -32 -12 -11 -54 14 -60 36 -7 29 14 27 43 -4z
m-270 -93 c0 -15 108 -62 142 -62 82 0 163 -48 156 -94 -4 -26 -51 -34 -208
-35 -132 -1 -150 8 -143 71 5 53 31 128 44 128 5 0 9 -4 9 -8z m1720 -231 c0
-75 -44 -73 -57 3 -5 35 -5 36 26 36 29 0 31 -2 31 -39z m-144 -26 c4 -8 3
-23 -1 -32 -7 -17 -8 -16 -15 2 -5 11 -9 26 -9 33 -1 17 18 15 25 -3z m259
-95 c3 -5 -3 -10 -15 -10 -12 0 -18 5 -15 10 3 6 10 10 15 10 5 0 12 -4 15
-10z m-337 -47 c3 -10 -13 -13 -57 -13 -62 0 -84 15 -33 23 45 7 85 3 90 -10z
m-359 -2 c18 -12 -7 -19 -75 -22 -52 -3 -78 6 -69 22 8 11 125 12 144 0z m619
-263 c2 -9 -5 -19 -17 -23 -12 -3 -35 -18 -52 -32 -22 -19 -33 -23 -41 -15
-17 17 7 56 45 75 38 19 61 18 65 -5z m62 -58 c10 -6 3 -7 -23 -3 -30 4 -45 1
-68 -16 -34 -25 -38 -21 -7 9 23 21 72 26 98 10z m-26 -52 c-46 -34 -51 -41
-26 -33 13 4 22 2 22 -4 0 -6 -5 -11 -12 -11 -6 0 -1 -11 12 -25 13 -14 19
-25 14 -25 -14 0 -64 53 -64 67 0 14 50 52 69 53 7 0 1 -10 -15 -22z m46 -3
c0 -2 -10 -10 -22 -16 -21 -11 -22 -11 -9 4 13 16 31 23 31 12z m240 -5 c0 -5
-5 -10 -11 -10 -5 0 -7 5 -4 10 3 6 8 10 11 10 2 0 4 -4 4 -10z m-286 -116
c16 4 40 16 53 28 13 12 23 16 23 10 0 -15 -59 -52 -83 -52 -24 0 -75 30 -82
48 -3 8 9 2 27 -13 25 -21 38 -25 62 -21z m16 -64 c0 -13 -7 -20 -20 -20 -31
0 -18 29 18 39 1 1 2 -8 2 -19z m-559 -111 c25 -35 33 -101 44 -345 l7 -151
-53 5 c-30 2 -55 5 -56 6 -1 1 -5 106 -9 233 -6 208 -5 234 10 257 21 33 30
33 57 -5z m249 -25 c0 -2 -12 -4 -26 -4 -14 0 -23 4 -20 9 6 8 46 4 46 -5z
m-10 -24 c-11 -8 -12 -12 -3 -18 7 -4 9 -13 4 -21 -7 -10 -12 -8 -25 10 -15
22 -15 24 1 31 27 10 40 9 23 -2z m260 -162 c0 -13 -5 -30 -10 -38 -9 -13 -12
-12 -25 4 -24 31 -19 56 10 56 19 0 25 -5 25 -22z m-226 -4 c12 -31 -2 -34
-82 -18 -20 4 -22 7 -12 19 17 21 86 20 94 -1z m84 -32 c4 -25 -13 -30 -22 -6
-9 25 -7 36 7 32 6 -3 13 -14 15 -26z m245 21 c-7 -2 -19 -2 -25 0 -7 3 -2 5
12 5 14 0 19 -2 13 -5z m-323 -148 c0 -24 -3 -25 -61 -25 -52 0 -60 2 -57 18
3 16 37 27 96 31 17 1 22 -4 22 -24z m203 -319 c3 -8 7 -83 8 -167 1 -84 6
-169 10 -190 7 -30 15 -420 10 -496 -1 -18 -7 -23 -31 -23 -52 0 -55 18 -52
440 1 151 2 314 2 363 0 85 1 87 24 87 13 0 26 -6 29 -14z m-248 -232 c-17
-78 -32 -102 -21 -34 13 81 30 145 34 127 2 -10 -4 -52 -13 -93z m-320 -324
c-3 -5 -13 -10 -21 -10 -8 0 -14 5 -14 10 0 6 9 10 21 10 11 0 17 -4 14 -10z
m-580 -382 c14 -14 25 -186 34 -528 6 -217 13 -462 16 -545 3 -82 8 -296 11
-475 l7 -325 -51 -13 c-40 -11 -51 -18 -56 -38 -4 -14 -11 -22 -17 -19 -5 4
-7 15 -4 26 7 20 -9 27 -20 9 -12 -20 -26 -9 -23 17 2 16 12 32 24 38 37 18
53 36 47 51 -7 19 -33 18 -33 -2 0 -9 -7 -14 -17 -12 -20 4 -25 29 -8 41 12 9
-30 47 -52 47 -11 0 -13 11 -7 59 6 52 4 60 -17 80 -12 11 -31 21 -41 21 -10
0 -18 5 -18 10 0 6 5 10 11 10 7 0 10 12 7 30 -3 17 0 30 5 30 5 0 7 6 4 14
-6 16 16 40 26 29 4 -3 7 -22 8 -42 0 -30 2 -33 9 -16 10 21 39 601 34 670 -5
73 -5 529 1 575 2 25 5 74 5 108 0 40 6 72 15 85 8 12 15 31 15 43 0 11 3 23
6 27 6 5 73 2 79 -5z m-310 -1548 c-4 -7 2 -9 18 -5 22 6 23 4 19 -24 -2 -18
-10 -31 -18 -31 -8 0 -14 -4 -14 -10 0 -5 -9 -10 -20 -10 -16 0 -20 7 -20 30
0 17 -4 30 -10 30 -17 0 -11 18 8 23 31 8 43 7 37 -3z m-26 -86 c30 -6 31 -8
31 -61 l0 -54 -37 7 c-21 4 -41 9 -45 11 -14 7 -9 83 5 83 8 0 7 4 -3 10 -13
8 -13 10 1 10 9 0 31 -3 48 -6z m81 -93 c0 -44 -4 -82 -9 -86 -13 -7 -24 52
-18 96 2 19 0 42 -5 52 -7 13 -4 17 12 17 18 0 20 -6 20 -79z m58 -103 c0 -22
8 -38 21 -47 31 -20 26 -42 -21 -93 -39 -41 -49 -47 -109 -57 -36 -6 -73 -11
-82 -11 -32 0 -26 9 82 129 17 19 29 37 26 40 -7 7 56 71 70 71 7 0 12 -15 13
-32z m78 -15 c-10 -10 -19 5 -10 18 6 11 8 11 12 0 2 -7 1 -15 -2 -18z m34
-103 c0 -5 -10 -11 -22 -11 -17 -1 -19 -2 -5 -6 17 -4 24 -23 9 -23 -14 0 -43
36 -35 43 10 11 53 8 53 -3z m190 -35 c7 -9 8 -15 2 -15 -5 0 -12 7 -16 15 -3
8 -4 15 -2 15 2 0 9 -7 16 -15z m-200 -25 c13 -8 13 -10 -2 -10 -9 0 -20 5
-23 10 -8 13 5 13 25 0z m-5 -30 c3 -5 2 -10 -4 -10 -5 0 -13 5 -16 10 -3 6
-2 10 4 10 5 0 13 -4 16 -10z m-15 -90 c0 -5 -4 -10 -10 -10 -5 0 -10 5 -10
10 0 6 5 10 10 10 6 0 10 -4 10 -10z m-5 -30 c8 -13 -15 -13 -35 0 -12 8 -11
10 7 10 12 0 25 -4 28 -10z m2 -36 c-3 -3 -12 -4 -19 -1 -8 3 -5 6 6 6 11 1
17 -2 13 -5z m58 -134 c3 -5 1 -10 -4 -10 -6 0 -11 5 -11 10 0 6 2 10 4 10 3
0 8 -4 11 -10z"/>
<path d="M5442 10166 c2 -15 8 -26 13 -26 15 0 12 43 -3 48 -10 3 -13 -4 -10
-22z"/>
<path d="M5194 10139 c-9 -16 12 -33 31 -25 14 5 15 9 5 21 -15 18 -26 19 -36
4z"/>
<path d="M4962 9648 c-28 -28 1 -64 44 -54 20 5 25 12 22 34 -2 20 -9 28 -28
30 -14 2 -31 -3 -38 -10z"/>
<path d="M4833 9563 c-27 -10 -7 -63 23 -63 7 0 20 7 28 16 30 30 -8 65 -51
47z"/>
<path d="M5102 9558 c-32 -32 8 -80 48 -58 34 18 19 70 -20 70 -9 0 -21 -5
-28 -12z"/>
<path d="M4971 9526 c-20 -24 -6 -48 26 -44 22 2 28 8 28 28 0 30 -35 40 -54
16z"/>
<path d="M4910 9502 c0 -79 91 -121 145 -67 24 23 36 83 15 70 -5 -3 -10 -12
-10 -19 0 -7 -11 -23 -25 -36 -25 -23 -27 -23 -53 -8 -15 9 -37 31 -49 48 -20
28 -23 30 -23 12z"/>
<path d="M4881 9406 c-18 -21 3 -56 34 -56 29 0 47 27 34 52 -12 22 -52 24
-68 4z"/>
<path d="M5705 9359 c-10 -15 3 -25 16 -12 7 7 7 13 1 17 -6 3 -14 1 -17 -5z"/>
<path d="M5376 8794 c-10 -25 1 -29 14 -5 6 12 7 21 1 21 -5 0 -12 -7 -15 -16z"/>
<path d="M5450 8771 c0 -5 5 -13 10 -16 6 -3 10 -2 10 4 0 5 -4 13 -10 16 -5
3 -10 2 -10 -4z"/>
<path d="M5252 8668 c-26 -26 -6 -68 33 -68 12 0 26 5 32 11 7 7 12 1 17 -22
10 -51 42 -79 91 -79 28 0 47 6 58 18 21 24 33 77 18 86 -7 4 -11 -1 -11 -12
0 -28 -38 -72 -61 -72 -12 0 -34 14 -51 30 -25 26 -29 36 -24 62 5 26 4 29 -9
18 -12 -10 -15 -10 -15 3 0 30 -55 48 -78 25z"/>
<path d="M5392 8623 c-14 -27 -3 -43 29 -43 33 0 48 22 29 45 -17 20 -47 19
-58 -2z"/>
<path d="M4905 8670 c4 -6 11 -8 16 -5 14 9 11 15 -7 15 -8 0 -12 -5 -9 -10z"/>
<path d="M4940 8650 c0 -5 5 -10 10 -10 6 0 10 5 10 10 0 6 -4 10 -10 10 -5 0
-10 -4 -10 -10z"/>
<path d="M5110 8360 c-6 -11 -15 -18 -19 -15 -5 3 -11 -2 -15 -10 -4 -11 2
-15 23 -15 27 0 30 4 40 45 5 19 -18 16 -29 -5z"/>
<path d="M5030 8350 c20 -13 33 -13 25 0 -3 6 -14 10 -23 10 -15 0 -15 -2 -2
-10z"/>
<path d="M5146 5545 c4 -8 7 -15 9 -15 2 0 5 7 9 15 3 9 0 15 -9 15 -9 0 -12
-6 -9 -15z"/>
<path d="M4950 10160 c-8 -14 -8 -26 0 -40 14 -26 18 -25 13 3 -6 29 16 48 44
41 27 -7 37 -32 22 -50 -7 -9 -8 -14 -1 -14 9 0 22 23 22 40 0 38 -82 54 -100
20z"/>
<path d="M4977 10143 c-3 -5 -2 -15 3 -22 10 -17 43 -6 38 12 -6 15 -34 22
-41 10z"/>
<path d="M6970 7858 c0 -32 3 -39 10 -28 13 20 13 70 0 70 -5 0 -10 -19 -10
-42z"/>
<path d="M6969 7808 c-6 -30 -7 -88 0 -88 5 0 11 20 13 45 2 25 0 45 -4 45 -5
0 -8 -1 -9 -2z"/>
<path d="M6957 7663 c-4 -3 -7 -11 -7 -17 0 -6 5 -5 12 2 6 6 9 14 7 17 -3 3
-9 2 -12 -2z"/>
<path d="M6934 7589 c-3 -6 -2 -15 4 -21 6 -6 11 -2 15 11 5 22 -7 29 -19 10z"/>
<path d="M6866 7391 c-4 -7 -5 -15 -2 -18 9 -9 19 4 14 18 -4 11 -6 11 -12 0z"/>
<path d="M6852 7285 c3 -13 0 -26 -6 -29 -6 -2 -1 -5 12 -5 22 -1 28 13 16 43
-10 25 -27 18 -22 -9z"/>
<path d="M6858 7233 c-5 -28 -4 -62 2 -58 12 7 18 55 9 61 -5 3 -10 2 -11 -3z"/>
<path d="M8656 7095 c4 -11 12 -47 18 -80 6 -33 15 -66 19 -72 4 -7 16 -36 26
-65 11 -29 35 -90 54 -135 20 -44 33 -84 30 -87 -3 -3 2 -17 11 -31 9 -14 14
-25 10 -25 -3 0 1 -11 9 -23 8 -13 20 -43 27 -66 12 -47 48 -111 61 -111 13 0
13 0 -22 77 -31 69 -49 115 -74 188 -8 22 -32 87 -55 145 -22 58 -52 139 -67
180 -14 41 -32 86 -40 100 -8 15 -11 17 -7 5z"/>
<path d="M7620 7025 c0 -8 4 -15 10 -15 5 0 7 7 4 15 -4 8 -8 15 -10 15 -2 0
-4 -7 -4 -15z"/>
<path d="M2371 6888 c-5 -13 -16 -41 -24 -63 -8 -22 -25 -66 -37 -98 -25 -63
-21 -92 4 -32 9 21 16 43 16 49 0 6 6 20 13 31 14 20 20 38 37 103 9 37 4 43
-9 10z"/>
<path d="M7650 6811 c0 -5 5 -13 10 -16 6 -3 10 -2 10 4 0 5 -4 13 -10 16 -5
3 -10 2 -10 -4z"/>
<path d="M7856 6520 c28 -48 123 -180 129 -180 11 0 -82 145 -116 182 l-40 43
27 -45z"/>
<path d="M2220 6471 c-7 -13 -7 -22 0 -26 11 -7 11 -8 14 23 3 27 0 28 -14 3z"/>
<path d="M2190 6400 c0 -5 5 -10 11 -10 5 0 7 5 4 10 -3 6 -8 10 -11 10 -2 0
-4 -4 -4 -10z"/>
<path d="M8930 6365 c0 -8 4 -15 10 -15 5 0 7 7 4 15 -4 8 -8 15 -10 15 -2 0
-4 -7 -4 -15z"/>
<path d="M2170 6360 c0 -5 5 -10 10 -10 6 0 10 5 10 10 0 6 -4 10 -10 10 -5 0
-10 -4 -10 -10z"/>
<path d="M2141 6280 c-7 -17 -11 -34 -8 -36 8 -8 29 35 25 52 -2 9 -8 3 -17
-16z"/>
<path d="M8981 6250 c14 -31 19 -36 19 -24 0 6 -7 19 -16 30 -14 18 -14 18 -3
-6z"/>
<path d="M2117 6214 c-4 -4 -7 -14 -7 -23 0 -11 3 -12 11 -4 6 6 10 16 7 23
-2 6 -7 8 -11 4z"/>
<path d="M2045 6020 c-3 -5 -1 -10 4 -10 6 0 11 5 11 10 0 6 -2 10 -4 10 -3 0
-8 -4 -11 -10z"/>
<path d="M8806 5299 c-7 -55 -5 -64 24 -114 17 -30 36 -57 41 -61 10 -6 57
-69 123 -162 20 -29 50 -80 67 -112 17 -33 34 -60 39 -60 5 0 9 24 8 53 -1 28
3 71 7 95 7 40 4 52 -36 130 -35 70 -60 103 -129 170 -47 46 -97 92 -111 103
l-26 19 -7 -61z"/>
<path d="M9385 4280 c-9 -16 -12 -30 -8 -30 13 1 53 38 53 49 0 23 -30 10 -45
-19z"/>
<path d="M1600 4233 c0 -12 5 -25 10 -28 13 -8 13 15 0 35 -8 12 -10 11 -10
-7z"/>
<path d="M1147 4182 c-15 -15 -27 -34 -27 -41 0 -8 25 -62 55 -121 33 -66 58
-130 64 -166 44 -259 44 -259 114 -315 23 -18 37 -27 32 -19 -44 61 -65 101
-74 135 -5 22 -14 54 -19 70 -25 74 -32 104 -32 136 -1 55 -33 161 -63 204
-28 42 -34 77 -17 119 12 34 0 33 -33 -2z"/>
<path d="M9336 4163 c-8 -27 -18 -95 -22 -153 -6 -110 -27 -228 -44 -261 -16
-28 -64 -50 -98 -43 -23 5 -33 1 -46 -17 -9 -14 -27 -24 -43 -25 -43 -1 -35
-28 9 -32 35 -3 37 -5 28 -28 -6 -14 -10 -35 -10 -48 0 -28 -39 -66 -68 -66
-21 0 -21 -1 -5 -35 20 -41 30 -44 39 -10 3 14 15 30 25 35 14 8 22 4 42 -22
40 -54 40 -56 2 -74 -19 -9 -35 -20 -35 -25 0 -28 97 27 105 59 3 13 23 47 44
76 21 28 43 71 50 96 21 71 33 92 76 121 22 15 52 37 67 48 14 12 33 21 42 21
19 0 20 5 6 29 -11 22 21 144 45 171 20 22 19 30 -4 30 -22 0 -41 22 -24 27 6
2 19 11 29 19 18 15 18 15 -9 11 -24 -4 -27 -1 -26 22 1 14 -1 33 -5 42 -5 12
1 20 23 30 41 18 40 33 -1 25 -18 -3 -58 1 -88 9 -83 22 -86 21 -104 -32z"/>
<path d="M1566 4185 c-3 -8 6 -28 19 -44 14 -16 25 -33 25 -39 0 -5 -20 -15
-45 -21 -47 -12 -48 -13 -39 -48 4 -15 11 -20 22 -15 18 6 -41 -67 -65 -81 -7
-4 -13 -15 -13 -23 0 -8 -7 -17 -15 -20 -13 -5 -12 -10 3 -37 11 -22 17 -57
18 -112 1 -102 1 -102 20 -109 13 -5 14 -1 9 24 -7 32 -4 35 23 21 9 -4 31
-13 47 -18 17 -6 38 -14 49 -18 17 -8 17 -6 2 23 -22 42 -21 45 12 37 l29 -6
6 98 c10 149 8 191 -12 273 -26 106 -31 121 -42 115 -5 -3 -17 -1 -28 4 -14 8
-20 7 -25 -4z"/>
<path d="M1542 4131 c4 -13 18 -16 19 -4 0 4 -5 9 -11 12 -7 2 -11 -2 -8 -8z"/>
<path d="M1430 4065 c0 -9 44 -23 54 -18 4 3 2 9 -5 14 -15 10 -49 12 -49 4z"/>
<path d="M9126 3835 c-9 -26 -7 -32 5 -12 6 10 9 21 6 23 -2 3 -7 -2 -11 -11z"/>
<path d="M9115 3790 c-3 -5 -1 -18 4 -27 9 -16 10 -14 11 10 0 28 -5 34 -15
17z"/>
<path d="M1910 3756 c0 -14 5 -28 10 -31 6 -3 10 5 10 19 0 14 -4 28 -10 31
-6 3 -10 -5 -10 -19z"/>
<path d="M1904 3614 c-15 -48 -25 -65 -41 -70 -10 -3 -26 -10 -36 -15 -23 -12
-64 11 -77 44 -5 12 -9 16 -9 9 -1 -7 4 -22 9 -33 15 -27 -7 -25 -37 3 -29 27
-31 6 -3 -37 11 -16 20 -38 20 -48 0 -10 7 -32 16 -49 25 -49 3 -58 -46 -19
l-41 32 14 -33 c7 -18 22 -35 33 -37 10 -2 36 -19 57 -38 42 -38 84 -60 94
-50 3 4 -9 20 -28 37 l-34 30 37 0 c40 0 58 19 58 59 0 17 6 21 33 21 l32 1
-32 28 c-37 31 -39 36 -18 57 8 9 15 24 15 35 0 17 3 18 20 9 17 -9 20 -8 20
13 0 13 -11 34 -25 47 -23 22 -25 22 -31 4z"/>
<path d="M3440 3459 c0 -11 4 -18 10 -14 5 3 7 12 3 20 -7 21 -13 19 -13 -6z"/>
<path d="M1488 3393 c34 -43 72 -80 72 -69 0 16 -30 63 -54 84 -41 35 -51 26
-18 -15z"/>
<path d="M5040 3389 c0 -5 5 -7 10 -4 6 3 10 8 10 11 0 2 -4 4 -10 4 -5 0 -10
-5 -10 -11z"/>
<path d="M9267 3344 c-15 -8 -25 -19 -22 -25 7 -11 35 2 55 25 16 20 3 20 -33
0z"/>
<path d="M1586 3271 c29 -49 72 -87 85 -74 7 7 -3 23 -36 54 -58 55 -73 61
-49 20z"/>
<path d="M3480 3202 c6 -13 14 -21 18 -18 3 4 -2 14 -12 24 -18 16 -18 16 -6
-6z"/>
<path d="M3512 2864 c4 -23 27 -31 24 -8 -2 10 -8 20 -15 22 -8 3 -12 -3 -9
-14z"/>
<path d="M3525 2800 c3 -5 8 -10 11 -10 2 0 4 5 4 10 0 6 -5 10 -11 10 -5 0
-7 -4 -4 -10z"/>
<path d="M3535 2720 c8 -53 21 -72 19 -29 -1 16 -3 31 -4 34 -1 3 -3 9 -4 14
0 5 -5 13 -10 18 -4 4 -5 -12 -1 -37z"/>
<path d="M3550 2641 c0 -5 5 -13 10 -16 6 -3 10 -2 10 4 0 5 -4 13 -10 16 -5
3 -10 2 -10 -4z"/>
<path d="M3566 2535 c4 -8 8 -15 10 -15 2 0 4 7 4 15 0 8 -4 15 -10 15 -5 0
-7 -7 -4 -15z"/>
<path d="M3570 2506 c0 -13 23 -66 29 -66 9 0 7 28 -4 53 -6 14 -25 25 -25 13z"/>
<path d="M3616 2313 c8 -32 24 -55 24 -32 0 26 -12 59 -21 59 -5 0 -6 -12 -3
-27z"/>
<path d="M3690 2095 c0 -8 5 -15 10 -15 6 0 10 7 10 15 0 8 -4 15 -10 15 -5 0
-10 -7 -10 -15z"/>
<path d="M7000 1990 c0 -5 7 -10 16 -10 8 0 12 5 9 10 -3 6 -10 10 -16 10 -5
0 -9 -4 -9 -10z"/>
<path d="M3700 1969 c0 -5 5 -7 10 -4 6 3 10 8 10 11 0 2 -4 4 -10 4 -5 0 -10
-5 -10 -11z"/>
<path d="M6828 1793 c6 -2 18 -2 25 0 6 3 1 5 -13 5 -14 0 -19 -2 -12 -5z"/>
<path d="M3812 1435 c0 -11 3 -29 8 -40 11 -25 11 1 0 35 -6 20 -8 21 -8 5z"/>
<path d="M3840 1325 c4 -20 12 -40 16 -43 10 -10 -5 61 -15 71 -6 6 -6 -6 -1
-28z"/>
<path d="M3865 1238 c4 -18 9 -42 11 -54 5 -18 1 -20 -28 -17 -49 5 -61 -8
-66 -74 -5 -82 8 -113 52 -113 42 0 54 14 59 70 3 42 4 41 5 -12 1 -41 6 -58
15 -58 8 0 19 -18 26 -41 7 -23 15 -39 17 -36 8 8 -15 123 -41 206 -13 42 -29
95 -35 119 -13 49 -25 57 -15 10z m-15 -169 c0 -62 -2 -70 -17 -67 -15 3 -19
16 -21 67 -2 44 1 67 10 72 22 14 28 -1 28 -72z"/>
<path d="M3748 1164 c-11 -17 -49 -176 -44 -181 7 -7 58 165 54 179 -3 7 -7 8
-10 2z"/>
<path d="M2017 1153 c-3 -5 -5 -43 -5 -85 l0 -78 84 0 84 0 0 85 0 85 -79 0
c-44 0 -82 -3 -84 -7z m141 -75 l-3 -63 -62 -3 -63 -3 0 66 0 65 65 0 66 0 -3
-62z"/>
<path d="M2060 1078 c0 -37 1 -38 35 -38 34 0 35 1 35 38 0 37 -1 38 -35 38
-34 0 -35 -1 -35 -38z"/>
<path d="M2332 1148 c-19 -19 -14 -27 20 -30 31 -3 54 -28 25 -28 -9 0 -14
-10 -14 -25 0 -15 5 -25 13 -25 19 0 18 -19 -1 -26 -10 -4 -15 -19 -15 -43 0
-25 -6 -40 -20 -48 -23 -15 -41 3 -19 19 11 7 11 11 2 15 -7 2 -13 11 -13 19
0 31 -19 12 -22 -23 -4 -52 -28 -56 -28 -4 0 23 5 41 10 41 6 0 10 11 10 25 0
14 -4 25 -10 25 -5 0 -10 7 -10 15 0 9 9 15 25 15 14 0 25 5 25 10 0 6 -11 10
-25 10 -20 0 -25 5 -25 25 0 14 -4 25 -10 25 -5 0 -10 -22 -10 -50 0 -27 5
-50 10 -50 6 0 10 -11 10 -25 0 -36 -30 -33 -31 3 -2 24 -2 24 -6 4 -3 -13 1
-30 9 -39 10 -13 10 -17 1 -20 -15 -5 -18 -53 -3 -53 6 0 10 -4 10 -10 0 -15
-49 -12 -66 4 -16 17 -19 36 -4 36 6 0 10 5 10 10 0 6 -9 10 -20 10 -50 0 -5
-75 54 -90 14 -4 22 -15 24 -33 3 -24 7 -27 43 -27 31 0 39 -4 39 -18 0 -10 9
-28 20 -40 22 -23 26 -42 10 -42 -5 0 -10 -9 -10 -21 0 -23 27 -55 38 -44 4 4
1 10 -5 12 -15 5 -18 53 -3 53 17 0 50 -34 50 -52 0 -10 5 -18 10 -18 6 0 10
-7 10 -15 0 -8 5 -15 10 -15 6 0 10 7 10 15 0 8 7 15 15 15 10 0 15 -10 15
-31 0 -23 4 -30 15 -25 8 3 21 -2 29 -10 13 -13 17 -13 36 3 23 20 27 53 5 53
-8 0 -15 5 -15 10 0 15 38 50 55 50 8 0 15 9 15 20 0 11 -4 20 -8 20 -4 0 -14
-9 -22 -20 -20 -28 -40 -25 -40 5 0 16 6 25 15 25 8 0 15 5 15 10 0 6 -13 10
-30 10 -25 0 -30 4 -30 25 0 32 25 33 50 3 16 -20 19 -21 34 -6 9 9 16 30 16
47 0 24 -4 31 -20 31 -11 0 -20 -4 -20 -10 0 -5 5 -10 10 -10 6 0 10 -11 10
-25 0 -14 -4 -25 -10 -25 -5 0 -10 9 -10 20 0 11 -7 20 -15 20 -8 0 -15 7 -15
15 0 8 -4 15 -10 15 -5 0 -10 -8 -10 -18 0 -10 -3 -21 -6 -25 -11 -10 -54 24
-54 44 0 24 18 33 35 19 11 -9 15 -9 15 -1 0 6 -4 11 -10 11 -5 0 -10 16 -10
35 0 37 -13 47 -25 18 -6 -17 -7 -17 -19 0 -7 9 -23 17 -35 17 -12 0 -21 6
-21 15 0 8 -7 15 -15 15 -8 0 -15 5 -15 10 0 14 37 12 43 -2 3 -7 6 4 6 25 1
30 -3 37 -18 37 -26 0 -37 18 -17 26 10 4 16 19 16 40 0 32 -2 34 -33 34 -18
0 -38 -5 -45 -12z m88 -263 c0 -16 -6 -25 -15 -25 -8 0 -15 -4 -15 -10 0 -5 6
-10 14 -10 8 0 17 -8 19 -17 3 -10 5 1 6 25 1 30 5 42 16 42 8 0 15 5 15 10 0
6 7 10 15 10 8 0 15 -4 15 -10 0 -5 -7 -10 -15 -10 -11 0 -14 -12 -14 -49 1
-46 4 -50 27 -53 14 -2 27 -9 30 -15 2 -9 -10 -13 -44 -13 -33 0 -51 -5 -60
-17 -12 -17 -14 -17 -33 4 -23 25 -28 59 -8 66 7 2 8 8 3 13 -5 5 -11 4 -13
-3 -8 -23 -33 -14 -33 12 0 18 -5 25 -20 25 -11 0 -20 -7 -20 -15 0 -8 -7 -15
-15 -15 -10 0 -15 10 -15 30 0 27 3 30 33 30 18 0 38 -5 45 -12 9 -9 16 -7 30
10 24 30 52 29 52 -3z m97 -187 l1 -38 -44 0 -44 0 0 41 0 40 43 -3 c41 -3 42
-4 44 -40z m51 -100 c-3 -7 -11 -13 -18 -13 -7 0 -15 6 -17 13 -3 7 4 12 17
12 13 0 20 -5 18 -12z"/>
<path d="M2390 781 c0 -6 5 -13 10 -16 6 -3 10 1 10 9 0 9 -4 16 -10 16 -5 0
-10 -4 -10 -9z"/>
<path d="M2465 700 c-3 -5 -1 -10 4 -10 6 0 11 5 11 10 0 6 -2 10 -4 10 -3 0
-8 -4 -11 -10z"/>
<path d="M2462 1078 l3 -83 83 -3 82 -3 0 86 0 85 -85 0 -86 0 3 -82z m146 0
l-3 -63 -60 0 -60 0 -3 63 -3 62 66 0 66 0 -3 -62z"/>
<path d="M2518 1085 c-5 -43 -3 -45 39 -45 33 0 34 1 31 38 -3 33 -6 37 -34
40 -30 3 -32 1 -36 -33z"/>
<path d="M2885 1123 c9 -20 18 -39 20 -41 2 -3 -5 -22 -15 -43 -11 -21 -20
-44 -20 -51 1 -7 10 8 22 35 11 26 24 47 29 47 5 0 10 -21 11 -47 l1 -48 4 45
c3 24 10 48 16 52 9 6 9 8 0 8 -7 0 -14 19 -16 43 l-4 42 -1 -42 c-2 -54 -15
-55 -36 -3 -9 22 -18 40 -21 40 -3 0 2 -17 10 -37z"/>
<path d="M3036 1144 c-3 -9 -6 -44 -6 -79 0 -70 14 -91 54 -81 26 6 36 30 36
88 0 60 -15 88 -49 88 -17 0 -31 -6 -35 -16z m62 -72 l3 -73 -28 3 c-27 3 -28
6 -31 62 -4 73 2 88 30 84 21 -3 23 -9 26 -76z"/>
<path d="M3160 1071 c0 -90 0 -91 24 -91 14 0 32 7 40 16 18 18 21 60 6 69 -6
4 -8 16 -5 28 2 12 2 16 -1 10 -3 -7 -17 -13 -30 -13 -20 0 -24 5 -24 30 0 33
24 41 49 18 11 -11 13 -10 9 2 -3 8 -19 16 -36 18 l-32 3 0 -90z m66 -25 c8
-32 -2 -46 -32 -46 -21 0 -24 5 -24 35 0 31 3 35 25 35 18 0 26 -7 31 -24z"/>
<path d="M3282 1153 c14 -4 18 -19 21 -91 l3 -87 2 87 c2 73 5 87 20 91 9 3
-1 5 -23 5 -22 0 -32 -2 -23 -5z"/>
<path d="M3370 1070 l0 -90 30 0 c17 0 30 5 30 10 0 6 -11 10 -25 10 -22 0
-25 4 -25 35 0 29 4 35 23 36 l22 0 -22 9 c-17 7 -23 18 -23 39 0 25 5 30 28
34 25 4 25 4 -5 6 l-33 1 0 -90z"/>
<path d="M3474 1070 c0 -52 1 -74 3 -47 4 44 6 47 33 47 27 0 29 -3 33 -47 2
-27 4 -5 4 47 0 58 -2 80 -6 55 -5 -34 -10 -40 -33 -43 -25 -3 -27 0 -31 40
-2 24 -3 0 -3 -52z"/>
<path d="M3590 1070 c0 -89 0 -90 25 -90 28 0 65 32 65 55 0 8 -9 24 -20 35
-11 11 -27 20 -35 20 -10 0 -15 11 -15 35 0 19 -4 35 -10 35 -6 0 -10 -37 -10
-90z m65 -35 c0 -23 -5 -31 -22 -33 -20 -3 -23 1 -23 33 0 32 3 36 23 33 17
-2 22 -10 22 -33z"/>
<path d="M2966 1115 c-9 -26 -7 -32 5 -12 6 10 9 21 6 23 -2 3 -7 -2 -11 -11z"/>
<path d="M2960 1059 c0 -14 31 -81 36 -76 3 3 -4 22 -15 44 -11 21 -20 35 -21
32z"/>
<path d="M2014 938 c1 -13 6 -27 11 -31 6 -6 6 -10 -2 -14 -15 -6 -18 -53 -3
-53 6 0 10 11 10 25 0 20 5 25 25 25 14 0 25 5 25 10 0 6 -11 10 -25 10 -20 0
-25 5 -25 25 0 14 -4 25 -8 25 -5 0 -8 -10 -8 -22z"/>
<path d="M2090 950 c0 -5 5 -10 10 -10 6 0 10 5 10 10 0 6 -4 10 -10 10 -5 0
-10 -4 -10 -10z"/>
<path d="M2602 918 c-18 -18 -15 -28 8 -28 13 0 20 7 20 20 0 23 -10 26 -28 8z"/>
<path d="M3961 864 c0 -11 3 -14 6 -6 3 7 2 16 -1 19 -3 4 -6 -2 -5 -13z"/>
<path d="M2060 845 c0 -8 -6 -15 -13 -15 -7 0 -18 -9 -25 -20 -7 -12 -8 -20
-2 -20 5 0 10 -7 10 -15 0 -8 -4 -15 -10 -15 -5 0 -10 -4 -10 -10 0 -5 16 -10
35 -10 19 0 35 5 35 10 0 6 -7 10 -15 10 -8 0 -15 7 -15 15 0 8 -4 15 -10 15
-5 0 -10 5 -10 10 0 6 18 10 40 10 46 0 47 3 20 30 -24 24 -30 25 -30 5z"/>
<path d="M2120 851 c0 -5 5 -11 11 -13 15 -5 -11 -48 -28 -48 -7 0 -13 -4 -13
-10 0 -5 9 -10 20 -10 11 0 20 5 20 11 0 6 17 9 43 7 45 -3 54 -21 12 -26 -31
-4 -33 -22 -2 -22 30 0 65 -39 46 -51 -11 -7 -12 -12 -2 -28 8 -13 9 -22 3
-26 -17 -10 -11 -25 10 -25 11 0 19 5 17 12 -1 6 6 14 16 16 15 3 18 -2 15
-25 -2 -20 -9 -29 -25 -31 -27 -4 -31 -22 -5 -22 10 0 24 -6 31 -13 11 -9 14
-9 18 1 6 14 53 17 53 2 0 -5 16 -10 35 -10 19 0 35 5 35 10 0 6 11 10 25 10
14 0 25 5 25 10 0 6 -14 10 -30 10 -18 0 -33 6 -36 15 -4 8 -17 15 -30 15 -13
0 -24 5 -24 10 0 6 -7 10 -15 10 -8 0 -15 5 -15 11 0 14 -76 89 -90 89 -15 0
-8 32 8 38 6 2 12 -3 12 -12 0 -10 9 -16 25 -16 14 0 25 5 25 10 0 6 -7 10
-15 10 -8 0 -15 7 -15 15 0 10 -11 15 -35 15 -28 0 -35 4 -35 20 0 11 -4 20
-10 20 -5 0 -10 -4 -10 -10 0 -5 -7 -10 -15 -10 -8 0 -15 7 -15 15 0 8 5 15
10 15 6 0 10 5 10 10 0 6 -13 10 -30 10 -16 0 -30 -4 -30 -9z m300 -281 c0 -5
-13 -10 -30 -10 -16 0 -30 5 -30 10 0 6 14 10 30 10 17 0 30 -4 30 -10z"/>
<path d="M3943 829 c-16 -6 -23 -17 -23 -34 0 -22 4 -25 36 -25 34 0 36 1 29
28 -9 36 -16 42 -42 31z"/>
<path d="M2019 683 c-1 -16 -2 -54 -3 -86 l-1 -57 83 0 82 0 0 85 0 85 -80 0
-80 0 -1 -27z m139 -60 l3 -63 -66 0 -65 0 0 58 c0 32 3 62 7 66 4 4 32 6 63
4 l55 -3 3 -62z"/>
<path d="M2060 625 c0 -33 2 -35 35 -35 33 0 35 2 35 35 0 33 -2 35 -35 35
-33 0 -35 -2 -35 -35z"/>
<path d="M2615 650 c-3 -5 -1 -10 4 -10 6 0 11 5 11 10 0 6 -2 10 -4 10 -3 0
-8 -4 -11 -10z"/>
<path d="M3935 650 c-3 -5 0 -10 8 -10 11 0 13 -9 6 -42 -11 -56 -11 -58 0
-58 9 0 31 75 31 104 0 18 -35 22 -45 6z"/>
<path d="M3078 643 c7 -3 16 -2 19 1 4 3 -2 6 -13 5 -11 0 -14 -3 -6 -6z"/>
<path d="M3258 643 c7 -3 16 -2 19 1 4 3 -2 6 -13 5 -11 0 -14 -3 -6 -6z"/>
<path d="M3588 643 c6 -2 18 -2 25 0 6 3 1 5 -13 5 -14 0 -19 -2 -12 -5z"/>
<path d="M3760 646 c0 -2 9 -6 20 -9 11 -3 18 -1 14 4 -5 9 -34 13 -34 5z"/>
<path d="M6935 639 c-11 -17 -2 -18 19 -3 17 12 17 14 4 14 -9 0 -20 -5 -23
-11z"/>
<path d="M7098 643 c7 -3 16 -2 19 1 4 3 -2 6 -13 5 -11 0 -14 -3 -6 -6z"/>
<path d="M7158 643 c7 -3 16 -2 19 1 4 3 -2 6 -13 5 -11 0 -14 -3 -6 -6z"/>
<path d="M7308 643 c7 -3 16 -2 19 1 4 3 -2 6 -13 5 -11 0 -14 -3 -6 -6z"/>
<path d="M7518 643 c7 -3 16 -2 19 1 4 3 -2 6 -13 5 -11 0 -14 -3 -6 -6z"/>
<path d="M7578 643 c6 -2 18 -2 25 0 6 3 1 5 -13 5 -14 0 -19 -2 -12 -5z"/>
<path d="M7728 643 c7 -3 16 -2 19 1 4 3 -2 6 -13 5 -11 0 -14 -3 -6 -6z"/>
<path d="M7938 643 c7 -3 16 -2 19 1 4 3 -2 6 -13 5 -11 0 -14 -3 -6 -6z"/>
<path d="M7998 643 c7 -3 16 -2 19 1 4 3 -2 6 -13 5 -11 0 -14 -3 -6 -6z"/>
<path d="M8138 643 c7 -3 16 -2 19 1 4 3 -2 6 -13 5 -11 0 -14 -3 -6 -6z"/>
<path d="M8348 643 c7 -3 16 -2 19 1 4 3 -2 6 -13 5 -11 0 -14 -3 -6 -6z"/>
<path d="M8408 643 c7 -3 16 -2 19 1 4 3 -2 6 -13 5 -11 0 -14 -3 -6 -6z"/>
<path d="M3750 607 c0 -14 5 -17 20 -12 16 5 20 2 20 -19 0 -13 -7 -27 -15
-29 -11 -4 -10 -4 2 -3 23 2 26 61 3 61 -8 0 -18 5 -22 10 -4 6 -8 2 -8 -8z"/>
<path d="M2615 601 c-3 -5 -1 -12 5 -16 5 -3 10 1 10 9 0 18 -6 21 -15 7z"/>
<path d="M3588 603 c6 -2 18 -2 25 0 6 3 1 5 -13 5 -14 0 -19 -2 -12 -5z"/>
<path d="M7578 603 c7 -3 16 -2 19 1 4 3 -2 6 -13 5 -11 0 -14 -3 -6 -6z"/>
<path d="M3418 573 c6 -2 18 -2 25 0 6 3 1 5 -13 5 -14 0 -19 -2 -12 -5z"/>
<path d="M6947 573 c-15 -14 -6 -33 16 -32 18 1 18 2 4 6 -11 3 -16 11 -13 19
6 15 3 18 -7 7z"/>
<path d="M7368 573 c6 -2 18 -2 25 0 6 3 1 5 -13 5 -14 0 -19 -2 -12 -5z"/>
<path d="M2490 550 c0 -5 5 -10 10 -10 6 0 10 5 10 10 0 6 -4 10 -10 10 -5 0
-10 -4 -10 -10z"/>
<path d="M2590 550 c0 -5 9 -10 20 -10 11 0 20 5 20 10 0 6 -9 10 -20 10 -11
0 -20 -4 -20 -10z"/>
<path d="M3260 550 c-9 -6 -10 -10 -3 -10 6 0 15 5 18 10 8 12 4 12 -15 0z"/>
<path d="M3587 549 c7 -7 15 -10 18 -7 3 3 -2 9 -12 12 -14 6 -15 5 -6 -5z"/>
<path d="M7080 549 c0 -5 9 -9 20 -9 11 0 20 2 20 4 0 2 -9 6 -20 9 -11 3 -20
1 -20 -4z"/>
<path d="M7290 549 c0 -5 9 -9 20 -9 11 0 20 2 20 4 0 2 -9 6 -20 9 -11 3 -20
1 -20 -4z"/>
<path d="M7500 549 c0 -5 9 -9 20 -9 11 0 20 2 20 4 0 2 -9 6 -20 9 -11 3 -20
1 -20 -4z"/>
<path d="M8630 550 c-9 -6 -10 -10 -3 -10 6 0 15 5 18 10 8 12 4 12 -15 0z"/>
<path d="M3068 543 c6 -2 18 -2 25 0 6 3 1 5 -13 5 -14 0 -19 -2 -12 -5z"/>
<path d="M6898 543 c7 -3 16 -2 19 1 4 3 -2 6 -13 5 -11 0 -14 -3 -6 -6z"/>
<path d="M7718 543 c6 -2 18 -2 25 0 6 3 1 5 -13 5 -14 0 -19 -2 -12 -5z"/>
<path d="M7928 543 c6 -2 18 -2 25 0 6 3 1 5 -13 5 -14 0 -19 -2 -12 -5z"/>
<path d="M8128 543 c6 -2 18 -2 25 0 6 3 1 5 -13 5 -14 0 -19 -2 -12 -5z"/>
<path d="M8338 543 c6 -2 18 -2 25 0 6 3 1 5 -13 5 -14 0 -19 -2 -12 -5z"/>
<path d="M5370 340 c0 -5 7 -7 15 -4 8 4 15 8 15 10 0 2 -7 4 -15 4 -8 0 -15
-4 -15 -10z"/>
<path d="M5560 200 c-12 -8 -10 -10 8 -10 13 0 20 4 17 10 -7 12 -6 12 -25 0z"/>
<path d="M5478 183 c7 -3 16 -2 19 1 4 3 -2 6 -13 5 -11 0 -14 -3 -6 -6z"/>
<path d="M5995 90 c3 -5 20 -10 36 -10 18 0 28 4 24 10 -3 6 -20 10 -36 10
-18 0 -28 -4 -24 -10z"/>
</g>
</svg>
