<svg width="78" height="50" viewBox="0 0 78 50" fill="none" xmlns="http://www.w3.org/2000/svg">
<g clip-path="url(#clip0_4_6)">
<path d="M16.8608 8.39489C16.7282 7.15436 16.1695 6.18845 15.1847 5.49716C14.2093 4.80587 12.9403 4.46023 11.3778 4.46023C10.2794 4.46023 9.33712 4.62595 8.55114 4.95739C7.76515 5.28883 7.16383 5.73864 6.74716 6.30682C6.33049 6.875 6.11742 7.52368 6.10795 8.25284C6.10795 8.8589 6.24527 9.38447 6.51989 9.82955C6.80398 10.2746 7.1875 10.6534 7.67045 10.9659C8.15341 11.2689 8.68845 11.5246 9.27557 11.733C9.86269 11.9413 10.4545 12.1165 11.0511 12.2585L13.7784 12.9403C14.8769 13.196 15.9328 13.5417 16.946 13.9773C17.9688 14.4129 18.8826 14.9621 19.6875 15.625C20.5019 16.2879 21.1458 17.0881 21.6193 18.0256C22.0928 18.9631 22.3295 20.0616 22.3295 21.321C22.3295 23.0256 21.8939 24.5265 21.0227 25.8239C20.1515 27.1117 18.892 28.1203 17.2443 28.8494C15.6061 29.5691 13.6222 29.929 11.2926 29.929C9.02936 29.929 7.06439 29.5786 5.39773 28.8778C3.74053 28.1771 2.44318 27.1544 1.50568 25.8097C0.577652 24.465 0.0757576 22.8267 0 20.8949H5.18466C5.26042 21.9081 5.57292 22.7509 6.12216 23.4233C6.6714 24.0956 7.38636 24.5975 8.26705 24.929C9.1572 25.2604 10.1515 25.4261 11.25 25.4261C12.3958 25.4261 13.3996 25.2557 14.2614 24.9148C15.1326 24.5644 15.8144 24.0814 16.3068 23.4659C16.7992 22.8409 17.0502 22.1117 17.0597 21.2784C17.0502 20.5208 16.8277 19.8958 16.392 19.4034C15.9564 18.9015 15.3456 18.4848 14.5597 18.1534C13.7831 17.8125 12.8741 17.5095 11.8324 17.2443L8.52273 16.392C6.12689 15.7765 4.23295 14.8438 2.84091 13.5938C1.45833 12.3343 0.767046 10.6629 0.767046 8.57955C0.767046 6.86553 1.23106 5.36458 2.15909 4.0767C3.09659 2.78883 4.37027 1.78977 5.98011 1.07955C7.58996 0.359848 9.41288 0 11.4489 0C13.5133 0 15.322 0.359848 16.875 1.07955C18.4375 1.78977 19.6638 2.77936 20.554 4.0483C21.4441 5.30777 21.9034 6.75663 21.9318 8.39489H16.8608Z" fill="white"/>
<path d="M27.0277 29.4886V0.397727H37.9368C40.1716 0.397727 42.0466 0.814394 43.5618 1.64773C45.0864 2.48106 46.237 3.62689 47.0135 5.08523C47.7995 6.53409 48.1925 8.18182 48.1925 10.0284C48.1925 11.8939 47.7995 13.5511 47.0135 15C46.2275 16.4489 45.0675 17.59 43.5334 18.4233C41.9993 19.2472 40.1101 19.6591 37.8658 19.6591H30.6357V15.3267H37.1555C38.4624 15.3267 39.5324 15.0994 40.3658 14.6449C41.1991 14.1903 41.8146 13.5653 42.2124 12.7699C42.6196 11.9744 42.8232 11.0606 42.8232 10.0284C42.8232 8.99621 42.6196 8.08712 42.2124 7.30114C41.8146 6.51515 41.1944 5.90436 40.3516 5.46875C39.5182 5.02367 38.4434 4.80114 37.1271 4.80114H32.2976V29.4886H27.0277Z" fill="white"/>
<path d="M50.7813 0.397727H56.733L63.8494 13.267H64.1335L71.25 0.397727H77.2017L66.6193 18.6364V29.4886H61.3636V18.6364L50.7813 0.397727Z" fill="white"/>
<path d="M1.80109 38.2968H3.02966L7.25573 48.4439H7.35811L11.5842 38.2968H12.8128V49.9455H11.8117V40.5435H11.7207L7.79039 49.9455H6.82345L2.89315 40.5435H2.80215V49.9455H1.80109V38.2968Z" fill="white"/>
<path d="M17.5286 49.9455H16.4137L20.6512 38.2968H21.7887L26.0262 49.9455H24.9114L21.2598 39.6789H21.1801L17.5286 49.9455ZM18.3305 45.4805H24.1094V46.4361H18.3305V45.4805Z" fill="white"/>
<path d="M30.688 38.2968V49.9455H29.6243V38.2968H30.688Z" fill="white"/>
<path d="M35.3867 49.9455V38.2968H36.4503V48.9899H42.0016V49.9455H35.3867Z" fill="white"/>
<path d="M45.9979 49.9455V38.2968H52.7551V39.2523H47.0616V43.6376H52.3968V44.5932H47.0616V48.9899H52.8688V49.9455H45.9979Z" fill="white"/>
<path d="M66.1818 38.2968V49.9455H65.1466L58.2643 40.1908H58.1733V49.9455H57.1097V38.2968H58.1392L65.0443 48.0628H65.1353V38.2968H66.1818Z" fill="white"/>
</g>
<defs>
<clipPath id="clip0_4_6">
<rect width="78" height="50" fill="white"/>
</clipPath>
</defs>
</svg>
